<svg width="491" height="73" viewBox="0 0 491 73" fill="none" xmlns="http://www.w3.org/2000/svg">
<g filter="url(#filter0_d_32_626)">
<rect x="4" width="483" height="64.9911" rx="20" fill="white"/>
<rect x="4" width="483" height="64.9911" rx="20" fill="white"/>
<rect x="4" width="483" height="64.9911" rx="20" fill="white"/>
<path d="M222.108 40.2538C221.057 40.2538 220.15 40.0218 219.388 39.5577C218.63 39.089 218.045 38.4356 217.634 37.5975C217.226 36.7547 217.023 35.7746 217.023 34.6572C217.023 33.5397 217.226 32.5549 217.634 31.7026C218.045 30.8456 218.618 30.178 219.352 29.6998C220.091 29.2168 220.953 28.9754 221.938 28.9754C222.506 28.9754 223.067 29.07 223.621 29.2594C224.175 29.4488 224.679 29.7566 225.134 30.1827C225.588 30.6041 225.95 31.1629 226.22 31.8589C226.49 32.5549 226.625 33.4119 226.625 34.4299V35.1401H218.216V33.6913H224.92C224.92 33.0757 224.797 32.5265 224.551 32.0435C224.31 31.5606 223.964 31.1794 223.514 30.9001C223.069 30.6207 222.544 30.481 221.938 30.481C221.27 30.481 220.692 30.6468 220.205 30.9782C219.722 31.3049 219.35 31.731 219.089 32.2566C218.829 32.7822 218.699 33.3456 218.699 33.9469V34.9129C218.699 35.7367 218.841 36.4351 219.125 37.008C219.414 37.5762 219.814 38.0094 220.325 38.3077C220.837 38.6013 221.431 38.7481 222.108 38.7481C222.548 38.7481 222.946 38.6865 223.301 38.5634C223.661 38.4356 223.971 38.2462 224.232 37.9952C224.492 37.7396 224.693 37.4223 224.835 37.0435L226.455 37.4981C226.284 38.0473 225.998 38.5303 225.595 38.9469C225.193 39.3589 224.696 39.6808 224.104 39.9129C223.512 40.1401 222.847 40.2538 222.108 40.2538ZM235.425 33.0094V34.5719H229.061V33.0094H235.425ZM238.374 40.0265V29.1174H239.993V30.8219H240.135C240.363 30.2396 240.73 29.7874 241.236 29.4654C241.743 29.1387 242.351 28.9754 243.061 28.9754C243.781 28.9754 244.38 29.1387 244.858 29.4654C245.341 29.7874 245.718 30.2396 245.988 30.8219H246.101C246.381 30.2585 246.8 29.8111 247.358 29.4796C247.917 29.1434 248.587 28.9754 249.368 28.9754C250.344 28.9754 251.141 29.2808 251.762 29.8915C252.382 30.4976 252.692 31.4422 252.692 32.7254V40.0265H251.016V32.7254C251.016 31.9204 250.796 31.3451 250.355 30.9995C249.915 30.6539 249.397 30.481 248.8 30.481C248.033 30.481 247.439 30.713 247.017 31.1771C246.596 31.6363 246.385 32.2187 246.385 32.9242V40.0265H244.681V32.5549C244.681 31.9346 244.48 31.4351 244.077 31.0563C243.675 30.6728 243.156 30.481 242.522 30.481C242.086 30.481 241.679 30.597 241.3 30.829C240.926 31.0611 240.623 31.383 240.391 31.795C240.164 32.2022 240.05 32.6733 240.05 33.2083V40.0265H238.374ZM258.967 40.2822C258.276 40.2822 257.648 40.152 257.085 39.8915C256.521 39.6264 256.074 39.2452 255.743 38.7481C255.411 38.2462 255.245 37.6401 255.245 36.9299C255.245 36.3049 255.368 35.7983 255.615 35.41C255.861 35.017 256.19 34.7093 256.602 34.4867C257.014 34.2642 257.468 34.0985 257.966 33.9896C258.467 33.8759 258.972 33.786 259.478 33.7197C260.141 33.6344 260.679 33.5705 261.091 33.5279C261.507 33.4806 261.81 33.4024 262 33.2935C262.194 33.1846 262.291 32.9952 262.291 32.7254V32.6685C262.291 31.9678 262.099 31.4233 261.716 31.035C261.337 30.6468 260.761 30.4526 259.99 30.4526C259.19 30.4526 258.562 30.6278 258.108 30.9782C257.653 31.3286 257.333 31.7026 257.149 32.1004L255.558 31.5322C255.842 30.8693 256.221 30.3532 256.694 29.9839C257.172 29.6098 257.693 29.3494 258.257 29.2026C258.825 29.0511 259.384 28.9754 259.933 28.9754C260.283 28.9754 260.686 29.018 261.14 29.1032C261.6 29.1837 262.042 29.3518 262.468 29.6075C262.899 29.8631 263.257 30.249 263.541 30.7651C263.825 31.2812 263.967 31.9725 263.967 32.839V40.0265H262.291V38.5492H262.206C262.092 38.786 261.903 39.0393 261.637 39.3092C261.372 39.579 261.02 39.8087 260.579 39.9981C260.139 40.1875 259.601 40.2822 258.967 40.2822ZM259.223 38.7765C259.886 38.7765 260.444 38.6463 260.899 38.3859C261.358 38.1254 261.704 37.7893 261.936 37.3773C262.172 36.9654 262.291 36.5322 262.291 36.0776V34.5435C262.22 34.6288 262.064 34.7069 261.822 34.7779C261.585 34.8442 261.311 34.9034 260.998 34.9555C260.69 35.0028 260.39 35.0454 260.096 35.0833C259.807 35.1165 259.573 35.1449 259.393 35.1685C258.958 35.2254 258.55 35.3177 258.172 35.4455C257.797 35.5686 257.494 35.7557 257.262 36.0066C257.035 36.2528 256.922 36.589 256.922 37.0151C256.922 37.5975 257.137 38.0379 257.568 38.3361C258.003 38.6297 258.555 38.7765 259.223 38.7765ZM267.026 40.0265V29.1174H268.702V40.0265H267.026ZM267.879 27.2992C267.552 27.2992 267.27 27.1879 267.033 26.9654C266.801 26.7429 266.685 26.4754 266.685 26.1629C266.685 25.8504 266.801 25.5828 267.033 25.3603C267.27 25.1378 267.552 25.0265 267.879 25.0265C268.205 25.0265 268.485 25.1378 268.717 25.3603C268.953 25.5828 269.072 25.8504 269.072 26.1629C269.072 26.4754 268.953 26.7429 268.717 26.9654C268.485 27.1879 268.205 27.2992 267.879 27.2992ZM273.449 25.481V40.0265H271.772V25.481H273.449Z" fill="#ACACAC"/>
</g>
<defs>
<filter id="filter0_d_32_626" x="0" y="0" width="491" height="72.9912" filterUnits="userSpaceOnUse" color-interpolation-filters="sRGB">
<feFlood flood-opacity="0" result="BackgroundImageFix"/>
<feColorMatrix in="SourceAlpha" type="matrix" values="0 0 0 0 0 0 0 0 0 0 0 0 0 0 0 0 0 0 127 0" result="hardAlpha"/>
<feOffset dy="4"/>
<feGaussianBlur stdDeviation="2"/>
<feComposite in2="hardAlpha" operator="out"/>
<feColorMatrix type="matrix" values="0 0 0 0 0 0 0 0 0 0 0 0 0 0 0 0 0 0 0.25 0"/>
<feBlend mode="normal" in2="BackgroundImageFix" result="effect1_dropShadow_32_626"/>
<feBlend mode="normal" in="SourceGraphic" in2="effect1_dropShadow_32_626" result="shape"/>
</filter>
</defs>
</svg>
