<svg width="481" height="402" viewBox="0 0 481 402" fill="none" xmlns="http://www.w3.org/2000/svg">
<path opacity="0.4" d="M182.248 279.726L478.245 269.513L480.5 290.79L396.106 402H74.0488L182.248 279.726Z" fill="#06254C"/>
<path d="M404.678 13.9153L415.613 18.6221V216.568L404.13 221.554H267.882H120.151V13.9153H267.882H404.678Z" fill="#A0EBF1" stroke="black" stroke-width="4"/>
<rect x="108.628" y="14.9153" width="293.462" height="205.639" fill="#9FEBF1" stroke="black" stroke-width="6"/>
<path d="M401.779 225.514L403.616 242.843L321.925 352.159L5.03771 345.717L3.20502 333.621L109.685 235.592L401.779 225.514Z" fill="#A0EBF1" stroke="black" stroke-width="6"/>
<rect x="108.628" y="32.5046" width="293.462" height="171.028" fill="#06254C" stroke="black" stroke-width="6"/>
<path d="M6.86373 330.465L107.123 225.419H399.094L315.2 337.404L6.86373 330.465Z" fill="#60BEFF" stroke="black" stroke-width="6"/>
<path d="M116.565 235.2H367.712C368.54 235.2 369.009 236.149 368.506 236.807L330.373 286.67C330.18 286.922 329.879 287.068 329.561 287.062L74.7673 282.665C73.905 282.65 73.4647 281.623 74.0483 280.988L115.829 235.523C116.019 235.317 116.286 235.2 116.565 235.2Z" fill="#06254C" stroke="black" stroke-width="4"/>
<path d="M154.174 294.351L211.361 295.364C218.671 295.493 222.785 303.825 218.442 309.707L205.946 326.636L112.215 325.33L130.426 304.784C136.437 298.002 145.114 294.19 154.174 294.351Z" fill="#A0EBF1" stroke="black" stroke-width="6"/>
<rect opacity="0.3" x="129.041" y="40.2851" width="222.146" height="154.899" rx="11" fill="#DACECE"/>
<mask id="mask0_26_247" style="mask-type:alpha" maskUnits="userSpaceOnUse" x="68" y="233" width="306" height="57">
<path d="M82.6305 278.3L118.103 239.7H360.629L327.872 282.533L82.6305 278.3Z" fill="#C4C4C4" stroke="black" stroke-width="13"/>
</mask>
<g mask="url(#mask0_26_247)">
<path d="M98.55 288.805L142.653 230.646M128.496 288.805L172.599 230.646M172.599 272.634L203.362 230.646M200.639 272.634L233.308 230.646M226.774 272.634L259.17 230.646M245.014 288.805L289.117 230.646M275.777 288.805L319.88 230.646M305.723 288.805L349.826 230.646" stroke="black" stroke-width="6"/>
<path d="M100.456 243.98H367.793M88.4773 259.3H357.176M75.4099 272.917H347.103" stroke="black" stroke-width="6"/>
</g>
<rect x="13.345" y="3" width="218.163" height="172.588" rx="7" fill="white" stroke="black" stroke-width="6"/>
<path d="M20.345 3H224.508C228.374 3 231.508 6.134 231.508 10V18.5262H13.345V10C13.345 6.13401 16.479 3 20.345 3Z" fill="#E0F0FE" stroke="black" stroke-width="6"/>
<ellipse cx="24.2724" cy="11.058" rx="3.97923" ry="4.14674" fill="#FF8484"/>
<ellipse cx="37.2783" cy="11.058" rx="3.97923" ry="4.14674" fill="#85E08E"/>
<ellipse cx="51.0495" cy="11.058" rx="3.97923" ry="4.14674" fill="#FAFFDE"/>
<rect x="378.411" y="38.5829" width="16.8788" height="16.4545" rx="2" fill="#FAFFDE"/>
<rect x="378.411" y="70.3571" width="16.8788" height="16.4545" rx="2" fill="#60BEFF"/>
<path d="M379.042 62.3196C379.21 62.1814 380.722 60.6944 380.852 61.314C381.082 62.4057 381.828 61.5409 382.529 61.2039C383.067 60.9452 383.677 61.5912 384.269 61.6149C384.732 61.6335 385.218 61.461 385.678 61.5782C386.096 61.685 386.379 61.9309 386.833 61.9526C388.095 62.0129 389.278 62.0143 390.545 61.7911C392.094 61.5183 393.579 61.3947 395.145 61.3947" stroke="black" stroke-linecap="round" stroke-linejoin="round"/>
<path d="M379.042 94.0938C379.21 93.9556 380.722 92.4686 380.852 93.0882C381.082 94.1799 381.828 93.3151 382.529 92.9781C383.067 92.7194 383.677 93.3654 384.269 93.3891C384.732 93.4077 385.218 93.2352 385.678 93.3524C386.096 93.4592 386.379 93.7051 386.833 93.7268C388.095 93.7871 389.278 93.7885 390.545 93.5653C392.094 93.2925 393.579 93.1689 395.145 93.1689" stroke="black" stroke-linecap="round" stroke-linejoin="round"/>
<rect x="95.8279" y="146.741" width="70.2374" height="18.1567" rx="9.07833" fill="#FFC7C7"/>
<rect opacity="0.25" x="20.1458" y="146.741" width="70.2374" height="18.1567" rx="9.07833" fill="#FFC7C7"/>
</svg>
