<svg width="856" height="759" viewBox="0 0 856 759" fill="none" xmlns="http://www.w3.org/2000/svg">
<path d="M904.031 -271.11C971.73 -296.205 986.597 -152.788 1021.12 -37.9739C1055.65 76.7053 1109.71 162.512 1059.95 216.884C1010.06 271.12 856.237 293.921 792.838 353.42C729.317 413.053 756.224 509.518 738.286 551.747C720.348 593.841 657.686 581.699 577.086 615.833C496.487 649.832 398.071 730.107 278.278 752.503C158.607 774.899 17.6798 739.416 1.58441 645.649C-14.3881 552.017 94.3479 400.236 150.375 283.937C206.401 167.774 209.719 86.959 275.083 86.959C340.325 86.959 467.736 167.774 531.38 190.305C595.025 212.971 595.025 177.353 655.352 62.674C715.679 -52.0052 836.21 -245.881 904.031 -271.11Z" fill="#F5CC94"/>
</svg>
