<svg width="250" height="250" viewBox="0 0 250 250" fill="none" xmlns="http://www.w3.org/2000/svg">
<rect width="250" height="250" fill="#D9D9D9"/>
<path d="M199.15 190.873C188.177 171.146 171.268 157.001 151.534 150.295C161.295 144.253 168.879 135.045 173.121 124.086C177.363 113.128 178.028 101.024 175.015 89.634C172.001 78.2441 165.476 68.1978 156.441 61.0378C147.405 53.8778 136.36 50 125 50C113.64 50 102.595 53.8778 93.5594 61.0378C84.5241 68.1978 77.9987 78.2441 74.9853 89.634C71.972 101.024 72.6373 113.128 76.879 124.086C81.1208 135.045 88.7045 144.253 98.4655 150.295C78.7321 156.993 61.823 171.138 50.8504 190.873C50.448 191.555 50.1811 192.314 50.0655 193.106C49.9498 193.897 49.9877 194.704 50.1769 195.48C50.3662 196.256 50.703 196.984 51.1673 197.623C51.6317 198.261 52.2144 198.796 52.8808 199.196C53.5473 199.597 54.2841 199.854 55.0479 199.954C55.8116 200.053 56.5867 199.992 57.3275 199.775C58.0683 199.558 58.7597 199.189 59.3611 198.689C59.9624 198.19 60.4615 197.57 60.8288 196.866C74.4022 172.472 98.3935 157.907 125 157.907C151.607 157.907 175.598 172.472 189.171 196.866C189.539 197.57 190.038 198.19 190.639 198.689C191.24 199.189 191.932 199.558 192.673 199.775C193.413 199.992 194.188 200.053 194.952 199.954C195.716 199.854 196.453 199.597 197.119 199.196C197.786 198.796 198.368 198.261 198.833 197.623C199.297 196.984 199.634 196.256 199.823 195.48C200.012 194.704 200.05 193.897 199.935 193.106C199.819 192.314 199.552 191.555 199.15 190.873ZM84.6543 103.964C84.6543 95.6657 87.0206 87.554 91.4538 80.6543C95.887 73.7547 102.188 68.3771 109.56 65.2015C116.933 62.026 125.045 61.1951 132.871 62.814C140.697 64.4329 147.886 68.4288 153.529 74.2965C159.171 80.1641 163.014 87.64 164.57 95.7786C166.127 103.917 165.328 112.353 162.275 120.02C159.221 127.686 154.05 134.239 147.415 138.849C140.78 143.459 132.98 145.92 125 145.92C114.303 145.908 104.048 141.484 96.4839 133.618C88.9201 125.752 84.6658 115.088 84.6543 103.964Z" fill="#06254C"/>
</svg>
