<svg width="220" height="220" viewBox="0 0 220 220" fill="none" xmlns="http://www.w3.org/2000/svg">
<circle cx="110" cy="110" r="110" fill="white"/>
<path d="M184.15 159.873C173.177 140.146 156.268 126.001 136.534 119.295C146.295 113.253 153.879 104.045 158.121 93.0862C162.363 82.1276 163.028 70.0239 160.015 58.634C157.001 47.2441 150.476 37.1978 141.441 30.0378C132.405 22.8778 121.36 19 110 19C98.6403 19 87.5947 22.8778 78.5594 30.0378C69.5241 37.1978 62.9987 47.2441 59.9853 58.634C56.972 70.0239 57.6373 82.1276 61.879 93.0862C66.1208 104.045 73.7045 113.253 83.4655 119.295C63.7321 125.993 46.823 140.138 35.8504 159.873C35.448 160.555 35.1811 161.314 35.0655 162.106C34.9498 162.897 34.9877 163.704 35.1769 164.48C35.3662 165.256 35.703 165.984 36.1673 166.623C36.6317 167.261 37.2144 167.796 37.8808 168.196C38.5473 168.597 39.2841 168.854 40.0479 168.954C40.8116 169.053 41.5867 168.992 42.3275 168.775C43.0683 168.558 43.7597 168.189 44.3611 167.689C44.9624 167.19 45.4615 166.57 45.8288 165.866C59.4022 141.472 83.3935 126.907 110 126.907C136.607 126.907 160.598 141.472 174.171 165.866C174.539 166.57 175.038 167.19 175.639 167.689C176.24 168.189 176.932 168.558 177.673 168.775C178.413 168.992 179.188 169.053 179.952 168.954C180.716 168.854 181.453 168.597 182.119 168.196C182.786 167.796 183.368 167.261 183.833 166.623C184.297 165.984 184.634 165.256 184.823 164.48C185.012 163.704 185.05 162.897 184.935 162.106C184.819 161.314 184.552 160.555 184.15 159.873ZM69.6543 72.9638C69.6543 64.6657 72.0206 56.554 76.4538 49.6543C80.887 42.7547 87.1882 37.3771 94.5604 34.2015C101.933 31.026 110.045 30.1951 117.871 31.814C125.697 33.4329 132.886 37.4288 138.529 43.2965C144.171 49.1641 148.014 56.64 149.57 64.7786C151.127 72.9173 150.328 81.3533 147.275 89.0197C144.221 96.6862 139.05 103.239 132.415 107.849C125.78 112.459 117.98 114.92 110 114.92C99.3032 114.908 89.0477 110.484 81.4839 102.618C73.9201 94.7524 69.6658 84.0876 69.6543 72.9638Z" fill="#06254C"/>
</svg>
