<svg width="59" height="43" viewBox="0 0 59 43" fill="none" xmlns="http://www.w3.org/2000/svg">
<path fill-rule="evenodd" clip-rule="evenodd" d="M17.338 0.127797C20.4837 0.0232358 21.4867 0 29.5 0C37.5133 0 38.5163 0.0251721 41.6594 0.127797C44.8025 0.230422 46.9479 0.592514 48.8252 1.11726C50.791 1.65362 52.5744 2.49204 54.0494 3.57638C55.5512 4.63942 56.7097 5.92514 57.4499 7.34639C58.1794 8.70182 58.6782 10.2509 58.823 12.5164C58.9678 14.7915 59 15.5157 59 21.2995C59 27.0852 58.9651 27.8094 58.823 30.0807C58.6809 32.3462 58.1794 33.8953 57.4499 35.2507C56.7097 36.6721 55.5493 37.96 54.0494 39.0246C52.5744 40.1089 50.791 40.9454 48.8252 41.4798C46.9479 42.0065 44.8025 42.3667 41.6647 42.4712C38.5163 42.5758 37.5133 42.599 29.5 42.599C21.4867 42.599 20.4837 42.5738 17.338 42.4712C14.2002 42.3686 12.0548 42.0065 10.1775 41.4798C8.20883 40.9453 6.42515 40.1075 4.95064 39.0246C3.44984 37.9609 2.28843 36.6737 1.54741 35.2526C0.820636 33.8972 0.321818 32.3481 0.177 30.0826C0.0321818 27.8075 0 27.0833 0 21.2995C0 15.5138 0.0348636 14.7896 0.177 12.5202C0.319136 10.2509 0.820636 8.70182 1.54741 7.34639C2.28953 5.92529 3.45182 4.63809 4.95332 3.57444C6.42574 2.49108 8.20763 1.65254 10.1748 1.11726C12.0521 0.592514 14.2002 0.232358 17.338 0.127797ZM41.4207 3.96171C38.3098 3.85908 37.3765 3.83778 29.5 3.83778C21.6235 3.83778 20.6902 3.85908 17.5793 3.96171C14.7017 4.05659 13.1409 4.40319 12.1004 4.69557C10.7246 5.08284 9.74036 5.54174 8.70786 6.28723C7.72912 6.97472 6.97589 7.81166 6.50341 8.73667C6.09845 9.48796 5.61841 10.6149 5.487 12.6926C5.34486 14.9387 5.31536 15.6125 5.31536 21.2995C5.31536 26.9865 5.34486 27.6603 5.487 29.9064C5.61841 31.9841 6.09845 33.111 6.50341 33.8623C6.97541 34.786 7.729 35.6244 8.70786 36.3118C9.65991 37.0185 10.8211 37.5626 12.1004 37.9034C13.1409 38.1958 14.7017 38.5424 17.5793 38.6373C20.6902 38.7399 21.6208 38.7612 29.5 38.7612C37.3792 38.7612 38.3098 38.7399 41.4207 38.6373C44.2983 38.5424 45.8591 38.1958 46.8996 37.9034C48.2754 37.5162 49.2596 37.0573 50.2921 36.3118C51.271 35.6244 52.0246 34.786 52.4966 33.8623C52.9016 33.111 53.3816 31.9841 53.513 29.9064C53.6551 27.6603 53.6846 26.9865 53.6846 21.2995C53.6846 15.6125 53.6551 14.9387 53.513 12.6926C53.3816 10.6149 52.9016 9.48796 52.4966 8.73667C51.9602 7.74334 51.3246 7.03271 50.2921 6.28723C49.3399 5.58061 48.1808 5.03677 46.8996 4.69557C45.8591 4.40319 44.2983 4.05659 41.4207 3.96171ZM25.732 27.8656C27.8364 28.498 30.1795 28.5834 32.3613 28.1071C34.5431 27.6307 36.4282 26.6223 37.6946 25.2539C38.961 23.8856 39.5301 22.2422 39.3049 20.6046C39.0796 18.9669 38.0738 17.4365 36.4593 16.2748C35.4301 15.5321 34.1857 14.9635 32.8156 14.6098C31.4455 14.2561 29.9839 14.1261 28.5359 14.2293C27.0879 14.3324 25.6895 14.666 24.4416 15.2062C23.1936 15.7463 22.127 16.4795 21.3186 17.353C20.5102 18.2265 19.9801 19.2185 19.7664 20.2577C19.5527 21.2969 19.6608 22.3573 20.0829 23.3627C20.505 24.3681 21.2306 25.2934 22.2074 26.072C23.1842 26.8506 24.388 27.4632 25.732 27.8656ZM18.7781 13.5581C20.1861 12.5415 21.8577 11.7351 23.6973 11.1849C25.537 10.6347 27.5088 10.3515 29.5 10.3515C31.4912 10.3515 33.463 10.6347 35.3027 11.1849C37.1423 11.7351 38.8139 12.5415 40.2219 13.5581C41.6299 14.5747 42.7468 15.7816 43.5089 17.1099C44.2709 18.4382 44.6631 19.8618 44.6631 21.2995C44.6631 22.7372 44.2709 24.1608 43.5089 25.4891C42.7468 26.8174 41.6299 28.0243 40.2219 29.0409C37.3783 31.0941 33.5215 32.2475 29.5 32.2475C25.4785 32.2475 21.6217 31.0941 18.7781 29.0409C15.9345 26.9878 14.3369 24.2031 14.3369 21.2995C14.3369 18.3959 15.9345 15.6112 18.7781 13.5581ZM48.026 11.9819C48.3749 11.7443 48.6542 11.4585 48.8475 11.1415C49.0407 10.8245 49.1438 10.4828 49.1508 10.1365C49.1578 9.7902 49.0685 9.44642 48.8882 9.1255C48.7078 8.80458 48.4402 8.51305 48.101 8.26816C47.7618 8.02327 47.358 7.83 46.9136 7.69981C46.4691 7.56961 45.9929 7.50512 45.5133 7.51017C45.0337 7.51522 44.5604 7.5897 44.1213 7.7292C43.6823 7.86869 43.2865 8.07037 42.9574 8.3223C42.3172 8.81224 41.9668 9.46302 41.9804 10.1365C41.994 10.81 42.3706 11.4531 43.0302 11.9294C43.6898 12.4056 44.5806 12.6775 45.5133 12.6873C46.4461 12.6972 47.3474 12.4441 48.026 11.9819Z" fill="white"/>
</svg>
