<svg width="57" height="50" viewBox="0 0 57 50" fill="none" xmlns="http://www.w3.org/2000/svg">
<path fill-rule="evenodd" clip-rule="evenodd" d="M21.0488 17.2649H31.5718V21.8481C33.0877 19.2122 36.975 16.8438 42.8145 16.8438C54.009 16.8438 56.6667 22.0909 56.6667 31.718V49.5478H45.3333V33.9105C45.3333 28.428 43.8175 25.3363 39.9585 25.3363C34.6063 25.3363 32.3822 28.6683 32.3822 33.908V49.5478H21.0488V17.2649ZM1.615 49.1266H12.9483V16.8438H1.615V49.1266ZM14.5718 6.31734C14.5723 7.14795 14.3839 7.97034 14.0176 8.73673C13.6513 9.50311 13.1145 10.1982 12.4383 10.7816C11.0681 11.9723 9.21346 12.6388 7.28167 12.6347C5.35327 12.6336 3.50288 11.9688 2.13067 10.7841C1.45693 10.1987 0.921927 9.50283 0.556307 8.73634C0.190687 7.96986 0.00164087 7.14782 0 6.31734C0 4.64015 0.765 3.0348 2.1335 1.85061C3.50451 0.664333 5.35568 -0.000741261 7.2845 6.20003e-07C9.21683 6.20003e-07 11.0698 0.666418 12.4383 1.85061C13.804 3.0348 14.5718 4.64015 14.5718 6.31734Z" fill="white"/>
</svg>
