<svg width="70" height="44" viewBox="0 0 70 44" fill="none" xmlns="http://www.w3.org/2000/svg">
<path d="M69.0641 5.2093C66.5243 6.0896 63.7959 6.68441 60.9276 6.95326C63.8872 5.56807 66.1013 3.38794 67.157 0.819678C64.3764 2.11156 61.3332 3.0209 58.1597 3.50817C56.0256 1.72583 53.1989 0.544467 50.1185 0.147492C47.0381 -0.249482 43.8763 0.160144 41.1241 1.31277C38.3718 2.4654 36.183 4.29655 34.8975 6.52191C33.612 8.74728 33.3018 11.2424 34.015 13.6198C28.3808 13.3985 22.8692 12.253 17.8376 10.2577C12.8061 8.26243 8.36714 5.46188 4.80888 2.03783C3.59221 3.67948 2.89263 5.58284 2.89263 7.60991C2.89127 9.43475 3.46577 11.2316 4.56517 12.8411C5.66457 14.4506 7.25487 15.823 9.19496 16.8365C6.94497 16.7805 4.74461 16.3049 2.77704 15.4494V15.5921C2.77682 18.1515 3.90864 20.6322 5.98047 22.6131C8.05231 24.5941 10.9365 25.9534 14.1438 26.4603C12.0565 26.9022 9.86819 26.9673 7.74408 26.6507C8.64897 28.8529 10.4116 30.7786 12.7852 32.1583C15.1589 33.538 18.0247 34.3026 20.9814 34.345C15.9622 37.427 9.76341 39.0988 3.38233 39.0915C2.25199 39.0917 1.12261 39.0401 0 38.9368C6.47716 42.1944 14.017 43.9232 21.7175 43.9165C47.7846 43.9165 62.0348 27.0289 62.0348 12.3826C62.0348 11.9067 62.0196 11.4261 61.9922 10.9503C64.7641 9.38236 67.1567 7.44074 69.058 5.21644L69.0641 5.2093Z" fill="white"/>
</svg>
